C:\Users\gl24\Desktop\Patient 3 Collaboration with Marleny\nms_results\Right\EMG Files\Patient3_NormalGait_1pt0_02_Right_01_EMG.mot
version=1
nRows=31
nColumns=29
inDegrees=no
endheader
time	AddMag	AddLong	GlutMaxMed	GlutMed	Iliopsoas	Sartorius	SemiMemb	SemiTend	BicFemLong	RecFem	TenFascLat	Gracilis	BicFemShort	VastMed	VastLat	VastInt	GasMed	GasLat	TibAnt	TibPost	ExtHalLong	FlexHalLong	PeroneusLong	Sol	ExtDigLong	GlutMaxLat	FlexDigLong	RecFem2
0.4	0.00045776	0.0032043	-0.112	0.0028992	0.0061035	0.016785	0.002594	0.0042725	0.0041199	0.007782	-0.025482	-0.021515	-0.0082398	-0.00030518	0.0027466	0.011597	-0.42252	0.019074	-0.062256	0.012512	0.041351	0.007019	0.018768	-0.018921	-0.022583	0.044098	-0.0016785	-0.0057983
0.401	0.0073242	0.0024414	-0.14999	0.00045776	0.0018311	0.016937	-0.007782	0.0062561	-0.0032043	0.0048828	-0.015106	-0.0056457	-0.0048828	-0.0010681	0.0038147	0.005188	0.059509	0.010376	-0.080109	0.014343	0.012817	0.0073242	0.028534	-0.046997	-0.025787	0.028687	-0.00061035	0.00015259
0.402	0.0048828	0.00091553	-0.14877	-0.002594	0.0019836	0.0074768	-0.018616	-0.00076294	-0.00061035	0.0036621	0.00045776	-0.0067139	-0.0099182	-0.011291	-0.0053406	0.0086975	0.3685	0.0047302	-0.15182	0.010529	-0.020294	0.00076294	0.031281	-0.086365	-0.0090027	0.013428	-0.0024414	0.0032043
0.403	0.0039673	0.007782	-0.15717	0.0035095	0.00061035	0.01648	-0.02655	-0.024414	-0.0018311	0.002594	0.011597	0.00076294	0.00030518	-0.0059509	-0.0027466	0.007782	-0.022583	0.0032043	-0.15167	0.016022	-0.03418	-0.0048828	0.027924	-0.13245	-0.032349	0.004425	0.0010681	0.0022888
0.404	0.019836	-0.0035095	-0.16083	0.0059509	0.0061035	0.013886	-0.019684	0.027924	-0.004425	0.0042725	-0.021057	0.0079346	-0.0064087	-0.0039673	-0.0076294	-0.00045776	0.04425	-0.00091553	-0.070648	0.01236	-0.039978	-0.0048828	0.012512	-0.14481	0.033264	0.012512	-0.00061035	-0.00061035
0.405	0.028839	0.0035095	-0.1561	0.0021362	0.0038147	0.012054	-0.017242	0.0090027	-0.0027466	-0.00030518	0.0038147	0.015717	-0.0091553	0.0032043	0.0024414	0.0064087	-0.028839	-0.010834	-0.083313	0.014191	-0.043487	-0.0073242	-0.011597	-0.1355	0.024109	-0.014343	0	-0.0042725
0.406	0.0177	0.0057983	-0.16129	0.0035095	0.0073242	0.01358	-0.011749	-0.0050354	0.0032043	0.0064087	-0.0097656	0.020447	0.0053406	-0.0053406	0.0027466	0.0035095	0.12085	-0.027924	-0.10239	0.015564	-0.059509	0.021362	-0.032349	-0.096893	-0.0064087	-0.007782	-0.0016785	-0.00076294
0.407	0.021362	0.0074768	-0.17364	0.0039673	0.0054932	0.0088501	-0.0177	0.00061035	0.0013733	-0.0036621	0.012512	0.0068665	0.0042725	-0.011139	-0.0056457	0.0050354	0.45181	-0.022888	-0.085907	0.013886	-0.04715	0.11368	-0.034485	-0.080261	-0.0013733	-0.013123	0.00045776	0.00015259
0.408	0.03067	0.0045776	-0.21072	-0.0041199	0.0082398	0.005188	-0.013428	-0.00061035	-0.0022888	-0.01358	-0.018921	0.0041199	0.0038147	0.0036621	0.0056457	-0.0032043	0.29694	-0.01648	-0.082397	0.014648	0.022736	-0.019684	-0.039825	-0.071869	-0.007782	-0.0022888	0.00061035	0.0088501
0.409	0.023498	-0.00091553	-0.18921	0.0053406	0.0057983	0.0065613	-0.015869	-0.00015259	0.00091553	0.00015259	-0.0068665	-0.0045776	0.021057	-0.0045776	-0.0047302	-0.0022888	0.13901	-0.00030518	0.032959	0.01236	-0.093689	-0.014801	-0.031433	-0.074463	-0.011291	-0.029907	-0.00015259	0.0038147
0.41	0.0091553	0.004425	-0.16403	-0.00030518	0.0042725	0.01358	-0.011291	0.0033569	0.0035095	0.00015259	-0.018005	0.00076294	-0.0024414	0.0071716	-0.0027466	-0.00015259	0.059357	0.0012207	0.023346	0.015259	-0.058289	-0.013733	-0.054016	-0.064087	0.005188	-0.015106	0.0019836	0.0047302
0.411	0.0047302	-0.0019836	-0.1619	-0.0059509	0.0099182	0.011444	-0.0093079	-0.0065613	-0.0024414	0.0065613	0.0068665	0.0071716	0.0036621	-0.002594	-0.00061035	0.00030518	-0.048981	-0.017395	0.033417	0.0059509	0.052795	-0.002594	-0.049896	-0.059051	0.023651	-0.02533	-0.00045776	-0.010834
0.412	0.0045776	0.0021362	-0.17639	0.0027466	0.0032043	0.041962	-0.005188	-0.0065613	0.0035095	0.00076294	0.0045776	0.0041199	-0.0041199	0.0018311	0.0035095	-0.0057983	-0.21469	-0.016327	0.0383	0.011749	0.083618	0.00015259	-0.039825	-0.046387	-0.0021362	-0.033875	0.0015259	0.0016785
0.413	-0.0068665	0.0048828	-0.17792	0.0042725	0.0086975	0.0053406	-0.0099182	-0.007782	-0.0015259	-0.0082398	-0.01709	0.0035095	0.019074	0.0018311	-0.0064087	0.0028992	-0.24841	-0.016632	0.10376	0.0093079	0.10712	-0.00091553	0.00030518	-0.023041	-0.0067139	-0.022278	-0.00091553	-0.0035095
0.414	0.002594	0.0047302	-0.16037	0.0028992	0.00076294	-0.0079346	-0.0018311	-0.0048828	0.0038147	-0.0094605	-0.0045776	0.0056457	0.0032043	-0.0097656	-0.0016785	-0.00076294	-0.34897	0.0027466	0.11551	0.013275	0.078888	-0.00091553	0.040741	0.0021362	-0.018311	-0.028381	-0.00061035	-0.00045776
0.415	-0.005188	0.0016785	-0.12848	0.0032043	0.0021362	0.0019836	0.0083923	-0.0022888	0.0032043	-0.005188	-0.019379	0.011597	-0.011444	0.0010681	-0.00030518	-0.0030518	-0.19165	0.0053406	0.076904	0.0088501	0.066681	-0.0036621	0.044861	0.052643	-0.00061035	0.0016785	-0.0015259	-0.0053406
0.416	-0.0039673	0.007019	-0.17624	0.0088501	0.0059509	0.022736	0.0090027	-0.0021362	-0.0016785	-0.0065613	0.0018311	0.0071716	-0.014648	-0.0032043	-0.0059509	-0.004425	0.29465	0.010223	0.091705	0.0097656	0.027618	-0.007782	0.027161	0.10819	-0.0024414	-0.01236	-0.00030518	0.0013733
0.417	0.010376	-0.0021362	-0.19241	0.0024414	0.0045776	0.018463	0.011902	0.0016785	-0.00061035	-0.011291	-0.024872	0.0097656	-0.042725	-0.007782	-0.0062561	-0.0054932	0.15945	-0.0028992	0.11215	0.012054	-0.0057983	-0.030518	0.017548	0.11673	-0.0024414	0.021057	-0.0010681	-0.0071716
0.418	-0.0035095	0.0015259	-0.18478	-0.0027466	0.0056457	-0.010529	0.012665	0.010529	-0.0036621	-0.0013733	0.00030518	0.013733	-0.026398	-0.0045776	0.00076294	0.0056457	0.042877	-0.0015259	0.074768	0.0097656	-0.050049	0.042114	0.017242	0.10162	-0.0083923	0.027924	-0.00015259	0.0039673
0.419	0.018311	0.0059509	-0.15717	0.012512	0.0015259	-0.025787	0.015259	-0.0010681	0.002594	0.0010681	-0.0022888	0.028687	-0.016632	-0.0062561	-0.0035095	-0.0064087	-0.06073	-0.0053406	0.044861	0.0076294	-0.064087	-0.0021362	0.024414	0.071411	-0.010223	0	-0.0010681	0.004425
0.42	0.02243	0.0047302	-0.15808	0.0050354	-0.0035095	-0.019836	0.013275	-0.0050354	-0.00076294	-0.012665	0.015411	0.029449	-0.00076294	-0.0074768	-0.005188	0.0010681	-0.52033	0.00061035	0.012054	0.005188	-0.040436	-0.0045776	0.031128	0.031738	-0.009613	0.027161	-0.0062561	0.007782
0.421	0.033112	0.0054932	-0.11932	0.0018311	0.002594	-0.013428	0.011597	-0.0059509	0.0028992	-0.0088501	0.0012207	0.0064087	0.022278	0.0039673	-0.0022888	0.0027466	-1.0225	0.00045776	-0.0012207	0.0054932	-0.029907	-0.020599	0.025635	0.00015259	-0.0057983	0.0076294	-0.0062561	0.013275
0.422	0.039215	0.0033569	-0.10895	0.0065613	0.04364	-0.00030518	0.0013733	-0.0079346	0.00091553	0.007019	-0.01236	0.013886	0.011444	0.0013733	-0.0038147	-0.0048828	-1.2376	-0.01648	0.041046	0.0093079	0.031738	0.022888	0.0019836	-0.018768	0.01648	0.011597	0.00015259	0.01297
0.423	0.040131	0.0048828	-0.13672	0.004425	-0.0021362	-0.043335	-0.00076294	-0.0019836	0.0018311	-0.0083923	0.0088501	0.022125	-0.011291	-0.0015259	-0.0022888	0.002594	-1.0165	-0.009613	0.045013	0.0028992	0.1268	-0.025635	-0.0032043	-0.0065613	0.022583	0.022583	-0.0045776	0.019379
0.424	0.050812	-0.0010681	-0.1384	0.0053406	-0.0022888	-0.0010681	-0.0033569	-0.0062561	-0.00091553	-0.0016785	0.02121	0.011291	-0.0059509	0.0039673	-0.00045776	0.0053406	-0.46066	-0.027313	0.033264	0.0053406	-0.088501	0.021515	-0.039978	0.037079	0.0068665	0.013733	0.00091553	0.021515
0.425	0.047455	0.0053406	-0.1416	0.0076294	0.0016785	0.00015259	-0.007782	-0.0038147	-0.0035095	-0.0016785	0.021667	0.0099182	-0.012512	0.01358	-0.0027466	0.0067139	0.5545	-0.041809	0.0033569	0.0085449	-0.024567	0.1297	-0.05188	0.057831	0.01236	0.017242	-0.0016785	0.021057
0.426	0.026856	0.0024414	-0.15655	0.0047302	0.00030518	0.0048828	-0.0016785	-0.0050354	0.0041199	-0.0057983	0.017395	0.024109	-0.013428	-0.00030518	-0.0083923	0.0056457	0.77881	-0.032196	-0.010529	-0.0048828	0.02594	0.0016785	-0.041199	0.036011	0.007019	0.021515	-0.002594	0.027466
0.427	0.046539	-0.00045776	-0.17334	-0.00015259	0.0035095	-0.0028992	-0.0028992	0.00045776	0.0010681	0.004425	-0.018463	0.022125	-0.010681	-0.0015259	-0.0041199	0.002594	0.5484	-0.015564	0.007019	0.0022888	0.10193	0.026398	-0.0064087	-0.0056457	-0.0041199	0.031891	-0.0013733	0.015564
0.428	0.027161	0.0015259	-0.17136	0.0030518	0.014191	0.0036621	-0.0080872	-0.0022888	0.005188	-0.010529	0.0027466	0.029907	0.0056457	0.0028992	-0.00015259	0.0010681	0.38391	0.0035095	0.012207	-0.0022888	0.059204	0.014191	0.027313	-0.063477	-0.016937	0.022736	0	0.017242
0.429	0.02533	0.0018311	-0.14511	0.005188	0.0079346	-0.016174	-0.0030518	0.0032043	0.0064087	-0.016785	0.0042725	0.024719	-0.0093079	-0.00045776	-0.0024414	0.0053406	0.29221	0.0086975	-0.011291	0.007019	0.048828	0.0068665	0.015106	-0.07431	0.0067139	0.020447	-0.0013733	0.018158
0.43	0.0093079	-0.0010681	-0.13245	-0.00091553	0.014343	-0.0033569	-0.0093079	0.0076294	-0.0090027	0.0012207	-0.0047302	0.01297	-0.0035095	-0.00030518	0.0054932	-0.0091553	0.19546	0.012054	-0.036774	0.0032043	-0.041199	0.0018311	0.018311	-0.027771	0.02655	0.047913	-0.0045776	0.0064087
